<svg width="30" height="44" viewBox="0 0 30 44" fill="none" xmlns="http://www.w3.org/2000/svg">
<path id="Vector" d="M29.4531 9.02344L21.8047 0.601562C21.4531 0.214844 20.9766 0 20.4766 0H20V11H30V10.4758C30 9.93438 29.8047 9.41016 29.4531 9.02344ZM17.5 11.6875V0H1.875C0.835937 0 0 0.919531 0 2.0625V41.9375C0 43.0805 0.835937 44 1.875 44H28.125C29.1641 44 30 43.0805 30 41.9375V13.75H19.375C18.3438 13.75 17.5 12.8219 17.5 11.6875ZM5 6.1875C5 5.80766 5.27969 5.5 5.625 5.5H11.875C12.2203 5.5 12.5 5.80766 12.5 6.1875V7.5625C12.5 7.94234 12.2203 8.25 11.875 8.25H5.625C5.27969 8.25 5 7.94234 5 7.5625V6.1875ZM5 13.0625V11.6875C5 11.3077 5.27969 11 5.625 11H11.875C12.2203 11 12.5 11.3077 12.5 11.6875V13.0625C12.5 13.4423 12.2203 13.75 11.875 13.75H5.625C5.27969 13.75 5 13.4423 5 13.0625ZM16.25 35.7397V37.8125C16.25 38.1923 15.9703 38.5 15.625 38.5H14.375C14.0297 38.5 13.75 38.1923 13.75 37.8125V35.7251C12.868 35.6752 12.0102 35.3366 11.2992 34.7497C10.9945 34.4979 10.9789 33.996 11.2547 33.7064L12.1727 32.743C12.3891 32.5162 12.7109 32.5059 12.9641 32.6803C13.2664 32.8883 13.6094 33 13.9656 33H16.1617C16.6695 33 17.0836 32.4912 17.0836 31.8665C17.0836 31.3552 16.8016 30.9048 16.3984 30.7725L12.8828 29.6123C11.4305 29.1328 10.4156 27.5997 10.4156 25.8835C10.4156 23.7763 11.9039 22.0645 13.7492 22.0103V19.9375C13.7492 19.5577 14.0289 19.25 14.3742 19.25H15.6242C15.9695 19.25 16.2492 19.5577 16.2492 19.9375V22.0249C17.1313 22.0748 17.9891 22.4125 18.7 23.0003C19.0047 23.2521 19.0203 23.754 18.7445 24.0436L17.8266 25.007C17.6102 25.2338 17.2883 25.2441 17.0352 25.0697C16.7328 24.8609 16.3898 24.75 16.0336 24.75H13.8375C13.3297 24.75 12.9156 25.2588 12.9156 25.8835C12.9156 26.3948 13.1977 26.8452 13.6008 26.9775L17.1164 28.1377C18.5687 28.6172 19.5836 30.1503 19.5836 31.8665C19.5836 33.9745 18.0953 35.6855 16.25 35.7397Z" fill="white"/>
</svg>
