<svg width="40" height="39" viewBox="0 0 40 39" fill="none" xmlns="http://www.w3.org/2000/svg">
<path id="Vector" d="M39.3859 20.9624L26.0724 37.8109C24.8836 39.3152 22.8232 38.2622 22.8232 36.106V26.4783H12.0456C10.9916 26.4783 10.1437 25.4052 10.1437 24.0714V14.4437C10.1437 13.1098 10.9916 12.0367 12.0456 12.0367H22.8232V2.40906C22.8232 0.262883 24.8757 -0.800175 26.0724 0.704152L39.3859 17.5526C40.1229 18.4953 40.1229 20.0197 39.3859 20.9624ZM15.2155 37.3094V33.2979C15.2155 32.636 14.7875 32.0944 14.2645 32.0944H7.60774C6.20506 32.0944 5.07183 30.6603 5.07183 28.8852V9.62982C5.07183 7.85472 6.20506 6.42059 7.60774 6.42059H14.2645C14.7875 6.42059 15.2155 5.87904 15.2155 5.21713V1.20559C15.2155 0.543691 14.7875 0.002133 14.2645 0.002133H7.60774C3.40763 0.002133 0 4.31454 0 9.62982V28.8852C0 34.2005 3.40763 38.5129 7.60774 38.5129H14.2645C14.7875 38.5129 15.2155 37.9713 15.2155 37.3094Z" fill="white"/>
</svg>
