<svg width="37" height="34" viewBox="0 0 37 34" fill="none" xmlns="http://www.w3.org/2000/svg">
<path id="Vector" d="M36.16 7.87578L32.2613 0.996094C31.9129 0.378516 31.2942 0 30.6334 0H6.36426C5.70347 0 5.08473 0.378516 4.73631 0.996094L0.837628 7.87578C-1.17479 11.4285 0.609354 16.3691 4.36987 16.9336C4.64019 16.9734 4.91652 16.9934 5.19286 16.9934C6.97099 16.9934 8.54488 16.1301 9.62618 14.7953C10.7075 16.1301 12.2874 16.9934 14.0595 16.9934C15.8376 16.9934 17.4115 16.1301 18.4928 14.7953C19.5741 16.1301 21.154 16.9934 22.9261 16.9934C24.7043 16.9934 26.2782 16.1301 27.3595 14.7953C28.4468 16.1301 30.0207 16.9934 31.7928 16.9934C32.0751 16.9934 32.3454 16.9734 32.6158 16.9336C36.3883 16.3758 38.1784 11.4352 36.16 7.87578ZM31.8048 19.125C31.2041 19.125 30.6094 19.0254 30.0327 18.8727V25.5H6.96498V18.8727C6.38829 19.0188 5.79358 19.125 5.19286 19.125C4.83242 19.125 4.46598 19.0984 4.11156 19.0453C3.77515 18.9922 3.44476 18.9059 3.12637 18.8063V31.875C3.12637 33.0504 3.98541 34 5.04868 34H31.961C33.0243 34 33.8833 33.0504 33.8833 31.875V18.8063C33.5589 18.9125 33.2345 18.9988 32.8981 19.0453C32.5317 19.0984 32.1712 19.125 31.8048 19.125Z" fill="white"/>
</svg>
