<svg width="37" height="30" viewBox="0 0 37 30" fill="none" xmlns="http://www.w3.org/2000/svg">
<path id="Vector" d="M24.6117 15.0021C23.6347 15.0021 22.7155 14.3994 22.2184 13.4352L18.5013 6.29695L14.79 13.4352C14.287 14.4061 13.3679 15.0088 12.3909 15.0088C12.1307 15.0088 11.8706 14.9686 11.622 14.8815L3.70221 12.2566V24.1759C3.70221 25.1603 4.2803 26.0174 5.10119 26.2518L17.5995 29.8744C18.1891 30.0419 18.8077 30.0419 19.3915 29.8744L31.9014 26.2518C32.7223 26.0107 33.3003 25.1536 33.3003 24.1759V12.2566L25.3805 14.8748C25.132 14.9619 24.8718 15.0021 24.6117 15.0021ZM36.9018 7.48888L33.9247 0.605138C33.7455 0.18997 33.3582 -0.0510949 32.9593 0.00917137L18.5013 2.14528L23.8024 12.3303C24.022 12.7521 24.4614 12.953 24.8718 12.8191L36.3122 9.03572C36.8845 8.84152 37.162 8.10494 36.9018 7.48888ZM3.07788 0.605138L0.100722 7.48888C-0.165199 8.10494 0.118065 8.84153 0.684591 9.02902L12.125 12.8124C12.5354 12.9463 12.9748 12.7454 13.1944 12.3236L18.5013 2.14528L4.03751 0.00917137C3.63862 -0.0443986 3.25709 0.18997 3.07788 0.605138Z" fill="white"/>
</svg>
