<svg width="38" height="28" viewBox="0 0 38 28" fill="none" xmlns="http://www.w3.org/2000/svg">
<path id="Vector" d="M5.7 12C7.79594 12 9.5 10.2062 9.5 8C9.5 5.79375 7.79594 4 5.7 4C3.60406 4 1.9 5.79375 1.9 8C1.9 10.2062 3.60406 12 5.7 12ZM32.3 12C34.3959 12 36.1 10.2062 36.1 8C36.1 5.79375 34.3959 4 32.3 4C30.2041 4 28.5 5.79375 28.5 8C28.5 10.2062 30.2041 12 32.3 12ZM34.2 14H30.4C29.355 14 28.4109 14.4438 27.7222 15.1625C30.115 16.5438 31.8131 19.0375 32.1812 22H36.1C37.1509 22 38 21.1063 38 20V18C38 15.7938 36.2959 14 34.2 14ZM19 14C22.6753 14 25.65 10.8688 25.65 7C25.65 3.13125 22.6753 0 19 0C15.3247 0 12.35 3.13125 12.35 7C12.35 10.8688 15.3247 14 19 14ZM23.56 16H23.0672C21.8322 16.625 20.4606 17 19 17C17.5394 17 16.1737 16.625 14.9328 16H14.44C10.6637 16 7.6 19.225 7.6 23.2V25C7.6 26.6562 8.87656 28 10.45 28H27.55C29.1234 28 30.4 26.6562 30.4 25V23.2C30.4 19.225 27.3362 16 23.56 16ZM10.2778 15.1625C9.58906 14.4438 8.645 14 7.6 14H3.8C1.70406 14 0 15.7938 0 18V20C0 21.1063 0.849062 22 1.9 22H5.81281C6.18688 19.0375 7.885 16.5438 10.2778 15.1625Z" fill="#FCF1F1"/>
</svg>
