<svg width="36" height="36" viewBox="0 0 36 36" fill="none" xmlns="http://www.w3.org/2000/svg">
<g id="&#240;&#159;&#166;&#134; icon &#34;trash&#34;">
<path id="Vector" d="M31.4738 8.99315H23.98V6.49024C23.9449 5.53077 23.5307 4.62439 22.8283 3.96979C22.126 3.31518 21.1927 2.96578 20.2331 2.99816H15.7369C14.7773 2.96578 13.8441 3.31518 13.1417 3.96979C12.4394 4.62439 12.0252 5.53077 11.99 6.49024V8.99315H4.49631C4.09881 8.99315 3.7176 9.15105 3.43653 9.43212C3.15546 9.71319 2.99756 10.0944 2.99756 10.4919C2.99756 10.8894 3.15546 11.2706 3.43653 11.5517C3.7176 11.8327 4.09881 11.9906 4.49631 11.9906H5.99505V28.4769C5.99505 29.6693 6.46876 30.813 7.31197 31.6562C8.15518 32.4994 9.29882 32.9731 10.4913 32.9731H25.4788C26.6712 32.9731 27.8149 32.4994 28.6581 31.6562C29.5013 30.813 29.975 29.6693 29.975 28.4769V11.9906H31.4738C31.8712 11.9906 32.2525 11.8327 32.5335 11.5517C32.8146 11.2706 32.9725 10.8894 32.9725 10.4919C32.9725 10.0944 32.8146 9.71319 32.5335 9.43212C32.2525 9.15105 31.8712 8.99315 31.4738 8.99315ZM14.9875 6.49024C14.9875 6.25044 15.3023 5.99565 15.7369 5.99565H20.2331C20.6678 5.99565 20.9825 6.25044 20.9825 6.49024V8.99315H14.9875V6.49024Z" fill="#231F20"/>
</g>
</svg>
